<svg width="30" height="30" viewBox="0 0 30 30" fill="none" xmlns="http://www.w3.org/2000/svg">
<path d="M12.8533 2.2892C10.9709 0.753952 8.13104 1.75096 7.62148 4.12596L6.72724 8.29389L3.14406 10.603C1.10227 11.9188 1.17291 14.9278 3.27421 16.1464L6.96181 18.2848L8.05067 22.4062C8.67113 24.7546 11.5547 25.6173 13.3629 23.9954L16.5362 21.1491L20.7923 21.3871C23.2176 21.5227 24.9291 19.0469 23.9453 16.8259L22.219 12.9284L23.7605 8.95411C24.639 6.68946 22.8132 4.29666 20.3969 4.54596L16.1567 4.98344L12.8533 2.2892Z" fill="url(#paint0_linear_637_616)" stroke="#485385" stroke-width="1.5"/>
<path d="M24.2432 11.2396C23.6875 9.35805 21.3393 8.72886 19.9173 10.0805L17.6564 12.2294L14.5382 12.1453C12.577 12.0924 11.253 14.1312 12.0991 15.9013L13.4442 18.7156L12.4006 21.6551C11.7442 23.504 13.2741 25.3932 15.219 25.1356L18.3113 24.726L20.7844 26.6269C22.34 27.8224 24.6095 26.9512 24.9655 25.0219L25.5315 21.9544L28.1036 20.1897C29.7213 19.0798 29.5941 16.6521 27.8692 15.7173L25.1267 14.2311L24.2432 11.2396Z" fill="url(#paint1_linear_637_616)" stroke="#485385" stroke-width="1.5"/>
<defs>
<linearGradient id="paint0_linear_637_616" x1="9.75" y1="2.5293" x2="19.75" y2="21.7793" gradientUnits="userSpaceOnUse">
<stop stop-color="#F3E73E"/>
<stop offset="1" stop-color="#EC9731"/>
</linearGradient>
<linearGradient id="paint1_linear_637_616" x1="22.0401" y1="10.1283" x2="20.0873" y2="26.28" gradientUnits="userSpaceOnUse">
<stop stop-color="#F3E73E"/>
<stop offset="1" stop-color="#EC9731"/>
</linearGradient>
</defs>
</svg>
