<svg width="1920" height="1083" xmlns="http://www.w3.org/2000/svg">
 <g id="Layer_1">
  <title>Layer 1</title>
  <path fill="none" id="svg_1" d="m-21.37679,641.25861c0,1.72412 0,5.17242 5.78791,12.06897c5.78791,6.89655 15.12275,14.98535 28.93957,17.24139c22.85355,3.73163 65.49271,-3.72894 117.68757,-18.96552c48.13877,-14.05249 95.86059,-31.28998 127.33409,-55.17242c34.33294,-26.05225 60.6738,-56.33313 82.96008,-84.48279c20.08856,-25.37375 33.97972,-51.15625 50.16193,-79.31033c14.59142,-25.38641 24.92574,-54.62878 34.72748,-82.75864c7.09505,-20.36203 11.57582,-41.3793 17.36374,-62.06897c5.78789,-20.68964 13.21405,-41.46098 21.22235,-63.79309c7.44757,-20.76843 13.15074,-39.77812 19.29303,-53.44827c5.47498,-12.18503 11.78085,-28.6084 21.22235,-39.65518c8.28077,-9.68867 21.22235,-20.68964 36.6568,-31.03448c15.43442,-10.34482 36.21652,-21.45074 61.73772,-32.75862c20.88574,-9.25401 44.30257,-15.73492 63.66707,-20.68965c21.1477,-5.41101 44.27925,-10.69609 67.52561,-15.51724c26.9083,-5.58062 51.89251,-9.54953 69.45496,-12.06897c19.14417,-2.74635 40.53719,-6.03714 61.73775,-6.89655c21.28798,-0.86296 46.30053,-3.49352 81.03081,-5.17241c36.6539,-1.77189 73.26839,-2.58579 104.18244,-3.44828c30.85382,-0.86081 63.66704,0 92.60659,-1.72414c28.93956,-1.72414 61.79594,-0.95853 96.46516,-3.44828c36.74098,-2.63853 73.31367,-6.89655 98.39465,-6.89655c23.15156,0 46.31924,-0.79897 71.38425,0c27.0619,0.86262 63.59881,4.16314 104.18237,6.89655c34.68274,2.33597 68.04406,5.19092 92.60666,12.06897c19.82859,5.55243 36.48841,15.74646 54.02054,25.86207c15.29099,8.82251 33.67084,21.47293 50.16183,34.48276c14.31816,11.29572 27.31351,27.37286 42.44469,44.82758c17.72323,20.44476 35.58114,40.74742 48.23268,55.17242c14.52769,16.56416 25.08085,32.75862 38.58598,53.44827c13.50513,20.68965 26.28057,35.60742 36.65683,53.44827c8.76306,15.0672 16.63046,27.92975 27.01027,44.82758c10.82689,17.62567 22.33881,38.22412 32.79813,60.34485c10.75176,22.73926 23.0386,45.47278 32.79826,67.24136c11.23135,25.05115 22.18542,52.0433 34.72741,81.03448c14.3422,33.15265 27.52169,60.15405 38.58612,84.48279c10.11782,22.24719 14.75772,38.14252 23.1517,58.62067c7.14713,17.43652 13.53013,33.94873 17.36371,48.27588c4.06306,15.18463 4.82239,34.42896 5.78786,55.17242c1.04237,22.39441 -0.75715,51.99054 -9.64643,81.03448c-8.53248,27.87781 -24.40374,58.94611 -50.16197,82.75861c-24.72529,22.8576 -56.44567,40.3194 -94.53594,55.17242c-37.17617,14.49658 -77.42426,34.43176 -117.68751,48.27588c-33.63847,11.56628 -69.70042,21.81201 -102.25322,32.75854c-29.17191,9.80969 -59.08963,20.55554 -90.67724,31.03455c-24.60099,8.16125 -52.46075,12.72766 -79.10152,20.6897c-25.48463,7.61646 -53.54177,15.66479 -82.96009,20.68958c-32.4371,5.54053 -69.14174,12.11768 -111.89965,17.24146c-44.14627,5.29016 -102.25309,6.89648 -167.84941,6.89648c-63.66704,0 -140.9213,-1.59094 -216.08209,-5.17236c-71.51702,-3.40784 -132.91246,-9.47974 -192.93046,-12.06897c-53.95771,-2.32776 -96.4849,-3.26868 -136.98063,-6.89661c-36.67548,-3.28564 -74.87018,-13.6123 -115.75822,-20.68958c-38.30589,-6.63025 -66.84187,-9.42859 -92.60662,-20.6897c-22.59715,-9.87659 -40.02881,-24.67358 -63.66704,-41.37927c-22.69933,-16.04224 -45.43132,-28.5752 -61.73775,-48.27594c-16.54683,-19.99121 -33.60193,-41.03546 -44.37399,-62.06897c-10.43771,-20.38068 -17.63343,-41.30048 -25.08097,-62.06891c-8.00828,-22.33215 -15.43442,-44.82764 -21.22235,-68.96558c-5.78791,-24.13788 -10.69159,-48.48956 -17.36374,-68.96552c-6.82305,-20.93909 -14.17897,-46.37518 -21.22235,-68.96552c-8.54041,-27.39178 -11.93806,-53.70898 -17.36374,-75.86206c-6.00618,-24.52332 -12.40578,-49.92224 -15.43443,-79.31036c-2.65991,-25.81021 -2.89342,-53.40518 -3.85861,-79.31033c-1.02726,-27.57089 0.97444,-55.23901 3.85861,-82.75861c2.90096,-27.67975 6.75185,-48.22623 7.71722,-70.68967c0.81445,-18.95154 2.89208,-36.1264 3.85861,-50c1.07894,-15.48726 2.89152,-27.49434 3.85861,-39.65517c0.95736,-12.0386 0.07507,-20.82323 1.92931,-31.03448c1.95454,-10.76361 5.78791,-22.41379 7.71721,-32.75862c1.92931,-10.34483 4.82083,-24.04607 5.78792,-36.20689c0.8206,-10.31881 2.89248,-27.51461 3.85861,-43.10345c0.74684,-12.0505 0,-22.41379 0,-32.75862c0,-8.62069 0.37396,-15.56973 -1.92931,-27.58621c-1.66092,-8.66521 -0.22946,-19.33689 -3.85861,-29.31035c-2.66819,-7.33263 -5.78792,-12.06897 -9.64652,-17.24138c-3.85861,-5.17242 -9.23157,-10.73676 -17.36374,-17.24138c-9.20499,-7.36272 -17.36374,-13.79311 -28.93956,-18.96552c-11.57583,-5.17242 -26.98152,-8.68972 -42.4447,-13.79311c-21.1835,-6.99129 -42.40002,-12.24513 -67.52565,-17.24138c-26.96398,-5.3618 -63.72526,-9.57922 -98.39452,-12.06897c-36.74088,-2.63853 -71.34174,-6.0341 -104.18243,-6.89655c-28.92709,-0.75967 -53.97234,0.86159 -82.96008,1.72414c-19.28237,0.57376 -34.72748,0 -40.5154,0l-1.92932,0l-1.92929,0" stroke="#000"/>
 </g>

</svg>