<!DOCTYPE svg PUBLIC "-//W3C//DTD SVG 20010904//EN" "http://www.w3.org/TR/2001/REC-SVG-20010904/DTD/svg10.dtd">
<svg version="1.0" xmlns="http://www.w3.org/2000/svg" width="11px" height="14px" viewBox="0 0 110 140" preserveAspectRatio="xMidYMid meet">
<g id="layer101" fill="#ffffff" stroke="none">
 <path d="M0 120 c0 -15 7 -20 25 -20 18 0 25 5 25 20 0 15 -7 20 -25 20 -18 0 -25 -5 -25 -20z"/>
 <path d="M60 120 c0 -15 7 -20 25 -20 18 0 25 5 25 20 0 15 -7 20 -25 20 -18 0 -25 -5 -25 -20z"/>
 <path d="M0 70 c0 -15 7 -20 25 -20 18 0 25 5 25 20 0 15 -7 20 -25 20 -18 0 -25 -5 -25 -20z"/>
 <path d="M60 70 c0 -15 7 -20 25 -20 18 0 25 5 25 20 0 15 -7 20 -25 20 -18 0 -25 -5 -25 -20z"/>
 <path d="M0 20 c0 -15 7 -20 25 -20 18 0 25 5 25 20 0 15 -7 20 -25 20 -18 0 -25 -5 -25 -20z"/>
 <path d="M60 20 c0 -15 7 -20 25 -20 18 0 25 5 25 20 0 15 -7 20 -25 20 -18 0 -25 -5 -25 -20z"/>
 </g>

</svg>